<?xml version="1.0" encoding="utf-8"?>
<!-- Generator: Adobe Illustrator 18.1.0, SVG Export Plug-In . SVG Version: 6.00 Build 0)  -->
<!DOCTYPE svg PUBLIC "-//W3C//DTD SVG 1.1//EN" "http://www.w3.org/Graphics/SVG/1.1/DTD/svg11.dtd">
<svg version="1.1" id="Layer_1" xmlns="http://www.w3.org/2000/svg" xmlns:xlink="http://www.w3.org/1999/xlink" x="0px" y="0px"
	 viewBox="0 0 74.8 17.1" enable-background="new 0 0 74.8 17.1" xml:space="preserve">
<g>
	<defs>
		<rect id="SVGID_1_" x="0" y="0" width="74.8" height="17.1"/>
	</defs>
	<clipPath id="SVGID_2_">
		<use xlink:href="#SVGID_1_"  overflow="visible"/>
	</clipPath>
	<g clip-path="url(#SVGID_2_)">
		<rect x="43.4" y="16.7" fill="#A1D6BF" width="6" height="0.8"/>
		<rect x="44.6" y="2" fill="#5DBF8C" width="3.7" height="5.2"/>
		<rect x="46.1" y="0" fill="#5DBF8C" width="0.6" height="5.2"/>
		<polygon fill="#5DBF8C" points="47,6.2 47,5.2 49.4,5.2 49.4,4.3 43.4,4.3 43.4,5.2 45.9,5.2 45.9,6.2 43.4,6.2 43.4,7.5 
			45.9,7.5 45.9,8.5 43.4,8.5 43.4,9.8 45.9,9.8 45.9,10.8 43.4,10.8 43.4,12.1 45.9,12.1 45.9,13.1 43.4,13.1 43.4,14.4 45.9,14.4 
			45.9,15.4 43.4,15.4 43.4,16.7 45.9,16.7 45.9,17.7 43.4,17.7 43.4,18.4 49.4,18.4 49.4,17.7 47,17.7 47,16.7 49.4,16.7 
			49.4,15.4 47,15.4 47,14.4 49.4,14.4 49.4,13.1 47,13.1 47,12.1 49.4,12.1 49.4,10.8 47,10.8 47,9.8 49.4,9.8 49.4,8.5 47,8.5 
			47,7.5 49.4,7.5 49.4,6.2 		"/>
		<rect x="43.4" y="5.2" fill="#A1D6BF" width="2.4" height="1"/>
		<rect x="47" y="5.2" fill="#A1D6BF" width="2.4" height="1"/>
		<rect x="43.4" y="7.5" fill="#A1D6BF" width="2.4" height="1"/>
		<rect x="47" y="7.5" fill="#A1D6BF" width="2.4" height="1"/>
		<rect x="43.4" y="9.8" fill="#A1D6BF" width="2.4" height="1"/>
		<rect x="47" y="9.8" fill="#A1D6BF" width="2.4" height="1"/>
		<rect x="43.4" y="12.1" fill="#A1D6BF" width="2.4" height="1"/>
		<rect x="47" y="12.1" fill="#A1D6BF" width="2.4" height="1"/>
		<rect x="43.4" y="14.4" fill="#A1D6BF" width="2.4" height="1"/>
		<rect x="47" y="14.4" fill="#A1D6BF" width="2.4" height="1"/>
	</g>
	<g clip-path="url(#SVGID_2_)">
		<rect x="68.5" y="1.8" fill="#EEE8D5" width="6.2" height="28.4"/>
		<rect x="69.2" y="2.6" fill="#FFFFFF" width="4.9" height="0.3"/>
		<rect x="69.2" y="3.7" fill="#FFFFFF" width="4.9" height="0.3"/>
		<rect x="69.2" y="4.8" fill="#FFFFFF" width="4.9" height="0.3"/>
		<rect x="69.2" y="5.9" fill="#FFFFFF" width="4.9" height="0.3"/>
		<rect x="69.2" y="7" fill="#FFFFFF" width="4.9" height="0.3"/>
		<rect x="69.2" y="8.1" fill="#FFFFFF" width="4.9" height="0.3"/>
		<rect x="69.2" y="9.2" fill="#FFFFFF" width="4.9" height="0.3"/>
		<rect x="69.2" y="10.3" fill="#FFFFFF" width="4.9" height="0.3"/>
		<rect x="69.2" y="11.3" fill="#FFFFFF" width="4.9" height="0.3"/>
		<rect x="69.2" y="12.4" fill="#FFFFFF" width="4.9" height="0.3"/>
		<rect x="69.2" y="13.5" fill="#FFFFFF" width="4.9" height="0.3"/>
		<rect x="69.2" y="14.6" fill="#FFFFFF" width="4.9" height="0.3"/>
		<rect x="69.2" y="15.7" fill="#FFFFFF" width="4.9" height="0.3"/>
		<rect x="69.2" y="16.8" fill="#FFFFFF" width="4.9" height="0.3"/>
		<rect x="69.2" y="17.9" fill="#F28D9B" width="4.9" height="0.3"/>
		<rect x="69.2" y="19" fill="#F28D9B" width="4.9" height="0.3"/>
		<rect x="69.2" y="20" fill="#F28D9B" width="4.9" height="0.3"/>
		<rect x="69.2" y="21.1" fill="#F28D9B" width="4.9" height="0.3"/>
		<rect x="69.2" y="22.2" fill="#F28D9B" width="4.9" height="0.3"/>
		<rect x="69.2" y="23.3" fill="#F28D9B" width="4.9" height="0.3"/>
		<rect x="69.2" y="24.4" fill="#F28D9B" width="4.9" height="0.3"/>
		<rect x="69.2" y="25.5" fill="#F28D9B" width="4.9" height="0.3"/>
		<rect x="69.2" y="26.6" fill="#F28D9B" width="4.9" height="0.3"/>
		<rect x="69.2" y="27.7" fill="#F28D9B" width="4.9" height="0.3"/>
	</g>
	<g clip-path="url(#SVGID_2_)">
		<rect x="31.1" y="4.5" fill="#EEE8D5" width="6.2" height="19.3"/>
		<polygon fill="#EEE8D5" points="35.9,7.2 32.4,7.2 32.4,3.4 34.2,1.9 35.9,3.4 		"/>
		<rect x="33.3" y="3.4" fill="#FFFFFF" width="0.6" height="1.4"/>
		<rect x="34.4" y="3.4" fill="#FFFFFF" width="0.6" height="1.4"/>
		<rect x="32.1" y="5.8" fill="#FFFFFF" width="0.6" height="1.4"/>
		<rect x="33.3" y="5.8" fill="#FFFFFF" width="0.6" height="1.4"/>
		<rect x="34.4" y="5.8" fill="#FFFFFF" width="0.6" height="1.4"/>
		<rect x="35.6" y="5.8" fill="#FFFFFF" width="0.6" height="1.4"/>
		<rect x="32.1" y="7.8" fill="#FFFFFF" width="0.6" height="1.4"/>
		<rect x="33.3" y="7.8" fill="#FFFFFF" width="0.6" height="1.4"/>
		<rect x="34.4" y="7.8" fill="#FFFFFF" width="0.6" height="1.4"/>
		<rect x="35.6" y="7.8" fill="#FFFFFF" width="0.6" height="1.4"/>
		<rect x="32.1" y="9.8" fill="#FFFFFF" width="0.6" height="1.4"/>
		<rect x="33.3" y="9.8" fill="#FFFFFF" width="0.6" height="1.4"/>
		<rect x="34.4" y="9.8" fill="#FFFFFF" width="0.6" height="1.4"/>
		<rect x="35.6" y="9.8" fill="#FFFFFF" width="0.6" height="1.4"/>
		<rect x="32.1" y="11.8" fill="#FFFFFF" width="0.6" height="1.4"/>
		<rect x="33.3" y="11.8" fill="#FFFFFF" width="0.6" height="1.4"/>
		<rect x="34.4" y="11.8" fill="#FFFFFF" width="0.6" height="1.4"/>
		<rect x="35.6" y="11.8" fill="#FFFFFF" width="0.6" height="1.4"/>
		<rect x="32.1" y="13.8" fill="#FFFFFF" width="0.6" height="1.4"/>
		<rect x="33.3" y="13.8" fill="#FFFFFF" width="0.6" height="1.4"/>
		<rect x="34.4" y="13.8" fill="#FFFFFF" width="0.6" height="1.4"/>
		<rect x="35.6" y="13.8" fill="#FFFFFF" width="0.6" height="1.4"/>
		<rect x="32.1" y="15.8" fill="#FFFFFF" width="0.6" height="1.4"/>
		<rect x="33.3" y="15.8" fill="#FFFFFF" width="0.6" height="1.4"/>
		<rect x="34.4" y="15.8" fill="#FFFFFF" width="0.6" height="1.4"/>
		<rect x="35.6" y="15.8" fill="#FFFFFF" width="0.6" height="1.4"/>
		<rect x="32.1" y="17.7" fill="#FFFFFF" width="0.6" height="1.4"/>
		<rect x="33.3" y="17.7" fill="#FFFFFF" width="0.6" height="1.4"/>
		<rect x="34.4" y="17.7" fill="#FFFFFF" width="0.6" height="1.4"/>
		<rect x="35.6" y="17.7" fill="#FFFFFF" width="0.6" height="1.4"/>
		<rect x="32.1" y="19.7" fill="#FFFFFF" width="0.6" height="1.4"/>
		<rect x="33.3" y="19.7" fill="#FFFFFF" width="0.6" height="1.4"/>
		<rect x="34.4" y="19.7" fill="#FFFFFF" width="0.6" height="1.4"/>
		<rect x="35.6" y="19.7" fill="#FFFFFF" width="0.6" height="1.4"/>
	</g>
	<g clip-path="url(#SVGID_2_)">
		<rect x="61.8" y="5.9" fill="#41B191" width="6.7" height="19.7"/>
		<rect x="62.4" y="4.4" fill="#41B191" width="5.3" height="2.2"/>
		<rect x="63.1" y="3" fill="#41B191" width="4.1" height="1.7"/>
		<rect x="62.8" y="7" fill="#5DBF8C" width="0.8" height="1.8"/>
		<rect x="64" y="7" fill="#5DBF8C" width="0.8" height="1.8"/>
		<rect x="65.3" y="7" fill="#5DBF8C" width="0.8" height="1.8"/>
		<rect x="66.6" y="7" fill="#5DBF8C" width="0.8" height="1.8"/>
		<rect x="62.8" y="9.5" fill="#5DBF8C" width="0.8" height="1.8"/>
		<rect x="64" y="9.5" fill="#5DBF8C" width="0.8" height="1.8"/>
		<rect x="65.3" y="9.5" fill="#5DBF8C" width="0.8" height="1.8"/>
		<rect x="66.6" y="9.5" fill="#5DBF8C" width="0.8" height="1.8"/>
		<rect x="62.8" y="12" fill="#5DBF8C" width="0.8" height="1.8"/>
		<rect x="64" y="12" fill="#5DBF8C" width="0.8" height="1.8"/>
		<rect x="65.3" y="12" fill="#5DBF8C" width="0.8" height="1.8"/>
		<rect x="66.6" y="12" fill="#5DBF8C" width="0.8" height="1.8"/>
		<rect x="62.8" y="14.5" fill="#5DBF8C" width="0.8" height="1.8"/>
		<rect x="64" y="14.5" fill="#5DBF8C" width="0.8" height="1.8"/>
		<rect x="65.3" y="14.5" fill="#5DBF8C" width="0.8" height="1.8"/>
		<rect x="66.6" y="14.5" fill="#5DBF8C" width="0.8" height="1.8"/>
	</g>
	<g clip-path="url(#SVGID_2_)">
		<polygon fill="#F15D4A" points="31.1,18.3 24.8,18.3 24.8,5.9 26.1,3.7 29.7,3.7 31.1,5.9 		"/>
		<rect x="26.2" y="6" fill="#EF3924" width="0.8" height="1.8"/>
		<rect x="27.5" y="6" fill="#EF3924" width="0.8" height="1.8"/>
		<rect x="28.8" y="6" fill="#EF3924" width="0.8" height="1.8"/>
		<rect x="26.2" y="8.3" fill="#EF3924" width="0.8" height="1.8"/>
		<rect x="27.5" y="8.3" fill="#EF3924" width="0.8" height="1.8"/>
		<rect x="28.8" y="8.3" fill="#EF3924" width="0.8" height="1.8"/>
		<rect x="26.2" y="10.6" fill="#EF3924" width="0.8" height="1.8"/>
		<rect x="27.5" y="10.6" fill="#EF3924" width="0.8" height="1.8"/>
		<rect x="28.8" y="10.6" fill="#EF3924" width="0.8" height="1.8"/>
	</g>
	<g clip-path="url(#SVGID_2_)">
		<polygon fill="#F99F38" points="24.8,17 18.6,17 18.6,8 21.7,3.8 24.8,8 		"/>
		<rect x="19.5" y="12.2" fill="#EEE8D5" width="4.5" height="2.4"/>
		<path fill="#FBD07A" d="M24.5,12.3L24.2,11h-1.8h-1.1h-1.9L19,12.3c0,0,0,0,0,0.1c0,0.1,0.1,0.2,0.2,0.2c0.1,0,0.2-0.1,0.2-0.2
			c0,0.1,0.1,0.2,0.2,0.2c0.1,0,0.2-0.1,0.2-0.2c0,0.1,0.1,0.2,0.2,0.2c0.1,0,0.2-0.1,0.2-0.2c0,0.1,0.1,0.2,0.2,0.2
			c0.1,0,0.2-0.1,0.2-0.2c0,0.1,0.1,0.2,0.2,0.2c0.1,0,0.2-0.1,0.2-0.2c0,0.1,0.1,0.2,0.2,0.2c0.1,0,0.2-0.1,0.2-0.2
			c0,0.1,0.1,0.2,0.2,0.2c0.1,0,0.2-0.1,0.2-0.2c0,0.1,0.1,0.2,0.2,0.2c0.1,0,0.2-0.1,0.2-0.2c0,0.1,0.1,0.2,0.2,0.2
			c0.1,0,0.2-0.1,0.2-0.2c0,0.1,0.1,0.2,0.2,0.2c0.1,0,0.2-0.1,0.2-0.2c0,0.1,0.1,0.2,0.2,0.2c0.1,0,0.2-0.1,0.2-0.2
			c0,0.1,0.1,0.2,0.2,0.2c0.1,0,0.2-0.1,0.2-0.2c0,0.1,0.1,0.2,0.2,0.2C24.4,12.6,24.5,12.5,24.5,12.3
			C24.5,12.4,24.5,12.3,24.5,12.3z"/>
		<rect x="19.5" y="8.4" fill="#FBD07A" width="0.7" height="1.6"/>
		<rect x="20.7" y="8.4" fill="#FBD07A" width="0.7" height="1.6"/>
		<rect x="21.8" y="8.4" fill="#FBD07A" width="0.7" height="1.6"/>
		<rect x="23" y="8.4" fill="#FBD07A" width="0.7" height="1.6"/>
	</g>
	<g clip-path="url(#SVGID_2_)">
		<polygon fill="#41B191" points="43.4,17 37.2,17 37.2,9.4 40.3,5.2 43.4,9.4 		"/>
		<path fill="#5DBF8C" d="M38.9,10.4C38.9,10.4,38.9,10.4,38.9,10.4c0-0.3-0.2-0.5-0.5-0.5c-0.3,0-0.5,0.2-0.5,0.5c0,0,0,0,0,0h0
			v1.4h0.9L38.9,10.4L38.9,10.4z"/>
		<path fill="#5DBF8C" d="M40.2,10.4C40.2,10.4,40.2,10.4,40.2,10.4c0-0.3-0.2-0.5-0.5-0.5c-0.3,0-0.5,0.2-0.5,0.5c0,0,0,0,0,0h0
			v1.4h0.9L40.2,10.4L40.2,10.4z"/>
		<path fill="#5DBF8C" d="M41.4,10.4C41.4,10.4,41.4,10.4,41.4,10.4c0-0.3-0.2-0.5-0.5-0.5s-0.5,0.2-0.5,0.5c0,0,0,0,0,0h0v1.4h0.9
			L41.4,10.4L41.4,10.4z"/>
		<path fill="#5DBF8C" d="M42.7,10.4C42.7,10.4,42.7,10.4,42.7,10.4c0-0.3-0.2-0.5-0.5-0.5c-0.3,0-0.5,0.2-0.5,0.5c0,0,0,0,0,0h0
			v1.4h0.9L42.7,10.4L42.7,10.4z"/>
		<path fill="#5DBF8C" d="M38.9,12.8C38.9,12.8,38.9,12.8,38.9,12.8c0-0.3-0.2-0.5-0.5-0.5c-0.3,0-0.5,0.2-0.5,0.5c0,0,0,0,0,0h0
			v1.4h0.9L38.9,12.8L38.9,12.8z"/>
		<path fill="#5DBF8C" d="M40.2,12.8C40.2,12.8,40.2,12.8,40.2,12.8c0-0.3-0.2-0.5-0.5-0.5c-0.3,0-0.5,0.2-0.5,0.5c0,0,0,0,0,0h0
			v1.4h0.9L40.2,12.8L40.2,12.8z"/>
		<path fill="#5DBF8C" d="M41.4,12.8C41.4,12.8,41.4,12.8,41.4,12.8c0-0.3-0.2-0.5-0.5-0.5s-0.5,0.2-0.5,0.5c0,0,0,0,0,0h0v1.4h0.9
			L41.4,12.8L41.4,12.8z"/>
		<path fill="#5DBF8C" d="M42.7,12.8C42.7,12.8,42.7,12.8,42.7,12.8c0-0.3-0.2-0.5-0.5-0.5c-0.3,0-0.5,0.2-0.5,0.5c0,0,0,0,0,0h0
			v1.4h0.9L42.7,12.8L42.7,12.8z"/>
	</g>
	<g clip-path="url(#SVGID_2_)">
		<polygon fill="#F15D4A" points="12.4,17 6.2,17 6.2,7.9 7.5,6.2 11.1,6.2 12.4,7.9 		"/>
		<rect x="7.6" y="8.4" fill="#EF3924" width="3.4" height="1.5"/>
		<rect x="7.6" y="10.8" fill="#EF3924" width="3.4" height="1.5"/>
	</g>
	<g clip-path="url(#SVGID_2_)">
		<rect x="49.4" y="5.3" fill="#F99F38" width="6.2" height="11.8"/>
		<rect x="50.4" y="6.7" fill="#FBD07A" width="1.2" height="0.6"/>
		<rect x="51.9" y="6.7" fill="#FBD07A" width="1.2" height="0.6"/>
		<rect x="53.4" y="6.7" fill="#FBD07A" width="1.2" height="0.6"/>
		<rect x="50.4" y="7.8" fill="#FBD07A" width="1.2" height="0.6"/>
		<rect x="51.9" y="7.8" fill="#FBD07A" width="1.2" height="0.6"/>
		<rect x="53.4" y="7.8" fill="#FBD07A" width="1.2" height="0.6"/>
		<rect x="50.4" y="8.9" fill="#FBD07A" width="1.2" height="0.6"/>
		<rect x="51.9" y="8.9" fill="#FBD07A" width="1.2" height="0.6"/>
		<rect x="53.4" y="8.9" fill="#FBD07A" width="1.2" height="0.6"/>
		<rect x="50.4" y="10" fill="#FBD07A" width="1.2" height="0.6"/>
		<rect x="51.9" y="10" fill="#FBD07A" width="1.2" height="0.6"/>
		<rect x="53.4" y="10" fill="#FBD07A" width="1.2" height="0.6"/>
		<rect x="50.4" y="11.1" fill="#FBD07A" width="1.2" height="0.6"/>
		<rect x="51.9" y="11.1" fill="#FBD07A" width="1.2" height="0.6"/>
		<rect x="53.4" y="11.1" fill="#FBD07A" width="1.2" height="0.6"/>
		<rect x="50.4" y="12.2" fill="#FBD07A" width="1.2" height="0.6"/>
		<rect x="51.9" y="12.2" fill="#FBD07A" width="1.2" height="0.6"/>
		<rect x="53.4" y="12.2" fill="#FBD07A" width="1.2" height="0.6"/>
	</g>
	<g clip-path="url(#SVGID_2_)">
		<polygon fill="#EEE8D5" points="6.2,17 0,17 0,9.5 3.1,5.3 6.2,9.5 		"/>
		<rect x="1.9" y="8.4" fill="#FFFFFF" width="0.8" height="1.8"/>
		<rect x="3.2" y="8.4" fill="#FFFFFF" width="0.8" height="1.8"/>
		<rect x="1.9" y="10.8" fill="#FFFFFF" width="0.8" height="1.8"/>
		<rect x="3.2" y="10.8" fill="#FFFFFF" width="0.8" height="1.8"/>
	</g>
	<g clip-path="url(#SVGID_2_)">
		<polygon fill="#FAC16C" points="18.6,17 12.4,17 12.4,9.4 15.5,5.2 18.6,9.4 		"/>
		<circle fill="#F99F1B" cx="14.4" cy="10" r="0.7"/>
		<circle fill="#F99F1B" cx="16.6" cy="10" r="0.7"/>
		<circle fill="#F99F1B" cx="14.4" cy="12.1" r="0.7"/>
		<circle fill="#F99F1B" cx="16.6" cy="12.1" r="0.7"/>
		<circle fill="#F99F1B" cx="14.4" cy="14.3" r="0.7"/>
		<circle fill="#F99F1B" cx="16.6" cy="14.3" r="0.7"/>
	</g>
	<g clip-path="url(#SVGID_2_)">
		<polygon fill="#5DBF8C" points="61.8,17.4 55.6,17.4 55.6,9.8 58.7,5.6 61.8,9.8 		"/>
		<circle fill="#A1D6BF" cx="57.6" cy="10.4" r="0.7"/>
		<circle fill="#A1D6BF" cx="59.8" cy="10.4" r="0.7"/>
		<circle fill="#A1D6BF" cx="57.6" cy="12.5" r="0.7"/>
		<circle fill="#A1D6BF" cx="59.8" cy="12.5" r="0.7"/>
		<circle fill="#A1D6BF" cx="57.6" cy="14.7" r="0.7"/>
		<circle fill="#A1D6BF" cx="59.8" cy="14.7" r="0.7"/>
	</g>
</g>
</svg>
