<?xml version="1.0" encoding="utf-8"?>
<!-- Generator: Adobe Illustrator 18.1.0, SVG Export Plug-In . SVG Version: 6.00 Build 0)  -->
<!DOCTYPE svg PUBLIC "-//W3C//DTD SVG 1.1//EN" "http://www.w3.org/Graphics/SVG/1.1/DTD/svg11.dtd">
<svg version="1.1" id="Layer_1" xmlns="http://www.w3.org/2000/svg" xmlns:xlink="http://www.w3.org/1999/xlink" x="0px" y="0px"
	 viewBox="0 0 75 75" enable-background="new 0 0 75 75" xml:space="preserve">
<g>
	<path fill="#E6E6E5" d="M58,18.4c0.8,0.4,1.7,0.4,2.6,0.4c1.5,0,2.8,0.4,3.9,1.3c1.3,1.1,1.3,2.5,1.1,4c-0.1,0.8-0.1,0.9,0.7,0.8
		c2-0.2,3.8,0.3,5.4,1.3c1.9,1.1,3.2,2.7,3.3,5.1c0.1,1.6-0.1,3-0.9,4.3c-0.1,0.1-0.2,0.3-0.2,0.4c0,2.2-0.7,4.2-1.2,6.3
		c-0.3,1.2-0.4,2.5-0.8,3.7c-0.3,1.2-0.7,2.3-0.9,3.5c-0.2,0.8-0.4,1.7-0.4,2.5c0,0.6,0.1,1.3,0.1,1.9c-0.1,1.2-0.6,2.2-1.6,2.9
		c-0.6,0.4-0.8,0.8-0.7,1.5c0.1,1,0,2,0.1,2.9c0.3,2.2-1.3,4.1-3.2,4.6c-1,0.2-2,0.2-3,0c-1.5-0.3-3-0.5-4.5-0.9
		c-1.9-0.5-3.5-1.3-4.2-3.4c-0.3-0.9-0.8-1.7-1.2-2.5c-0.1-0.3-0.2-0.4-0.6-0.5c-3-0.3-5.9-0.7-8.9-1.1c-0.1,0-0.1,0-0.3,0
		c0.5,1.1,0.9,2.1,1.4,3.2c1.3,2.9,2.6,5.8,3.8,8.7c0.4,1,0.4,2-0.1,3.1c-0.6,1.3-1.4,2.1-2.7,2.6c-1,0.3-2.1,0.3-3.1,0.1
		c-3-0.6-6-1.2-9-1.9c-1.5-0.3-2.8-1.1-3.6-2.5c-2.9-5-5.9-10.1-8.9-15.1c-0.3-0.6-0.8-1.1-1-1.7c-0.4-0.9-1-1.3-1.9-1.5
		c-3.1-0.9-6.3-1.8-9.4-2.7c-1.5-0.5-3-1.1-4.1-2.2c-1-1-2.2-1.8-3.1-2.8c-1.3-1.4-1.3-3.2-0.5-4.8c1-1.9,2.7-2.5,5.1-2.3
		c0.5,0.1,0.7-0.1,0.7-0.5c0.1-0.6,0.4-1.1,0.4-1.8c0.3-1,0.6-2,0.9-3c0.1-0.4,0-0.5-0.4-0.7c-0.7-0.2-1.5-0.5-2.1-1
		c-0.9-1.1-0.9-2.6-0.5-4.1c0.3-1.2,1-2.3,1.3-3.4c1.3-4.1,2.3-8.2,3.5-12.3c0.3-0.9,0.7-1.7,1.4-2.3c1.3-1.2,2.8-1.3,4.4-1.1
		c1.7,0.2,3.3,0.5,5,0.9c2,0.4,4,0.5,5.9,1.3c1.1,0.5,2,1.7,1.9,3c0,0.5,0.1,0.7,0.6,0.6c0.8,0,1.7-0.1,2.5,0.1
		c0.4,0.1,0.6,0,0.9-0.2c0.9-0.9,2-1.3,3.3-1.3c1.2,0,2.3,0.2,3.5,0.5c1.6,0.4,3,1.2,3.4,3c0.1,0.3,0.2,0.3,0.4,0.3
		c1,0.2,2,0.5,3,0.9c0.3,0.1,0.5,0.1,0.8,0.1c2.3-0.2,4.5-0.1,6.6,1c0.3,0.2,0.7,0.4,1.1,0.4C55.4,18,56.7,18.2,58,18.4z M43.8,70.8
		c-0.2-0.5-0.4-0.9-0.5-1.2c-1.7-3.8-3.3-7.7-5-11.5c-0.2-0.5-0.3-0.9-0.1-1.4c0.3-1.2,0.6-2.3,0.9-3.5c0.1-0.5,0.3-0.7,0.8-0.6
		c2,0.4,4.1,0.7,6.2,1c2.9,0.4,5.8,0.8,8.8,0.9c0.6,0,0.9,0.2,1.2,0.8c0.5,1.3,1.2,2.6,1.7,3.9c0.2,0.6,0.3,1.3,1.1,1.5
		c1.5,0.3,3,0.6,4.5,0.9c0.5,0.1,0.7-0.1,0.7-0.6C64,59.1,64,57.2,64,55.3c0-1.3-0.2-1,1-1.4c0.4-0.1,0.8-0.1,1.2-0.4
		c-0.7-0.1-1.3-0.3-2-0.4c-9.4-1.8-18.7-3.7-28-5.5c-4.8-0.9-9.6-1.9-14.3-2.8c-5.5-1.1-11.1-2.2-16.6-3.3c-0.2,0-0.4-0.2-0.5,0.1
		C4.7,41.8,5,41.9,5.1,42c1.1,0.9,2.2,1.9,3.3,2.8c0.3,0.3,0.7,0.4,1,0.5c4.2,1.2,8.4,2.4,12.6,3.6c0.4,0.1,0.6,0.3,0.8,0.6
		c1,1.7,2,3.4,3,5c2.7,4.5,5.4,9.1,8.1,13.6c0.2,0.4,0.5,0.6,0.9,0.6c1.3,0.2,2.6,0.5,3.9,0.8C40.2,70.1,42,70.5,43.8,70.8z
		 M33.7,44.7c-0.3,1.1,0.3,1.1,0.9,1.2c0.5,0.1,1,0.1,1.5,0.3s0.7,0,0.8-0.4c0.7-2.5,1.3-5,1.9-7.5c0.4-1.8-0.3-3.1-1.9-4
		c-1.4-0.7-3-1-4.6-1c-1.9,0-3.4,0.9-4.1,2.8c-0.1,0.3,0,0.5,0.3,0.5c0.7,0.1,1.5,0.3,2.2,0.4c0.2,0,0.4,0,0.5-0.2
		c0.9-1.2,2.6-1.4,3.8-0.5c0.4,0.3,0.6,0.6,0.4,1.1c-0.1,0.5-0.4,0.8-0.9,0.8c-0.3,0-0.6,0.1-0.9,0c-1.1,0-2.3-0.1-3.4,0
		c-2.3,0.1-3.6,1.2-3.9,3.5c-0.2,1.1,0.2,2,1.1,2.6c0.8,0.6,1.7,0.8,2.6,0.9C31.2,45.5,32.4,45.4,33.7,44.7z M56.8,50.5
		c1.9,0,3.5-0.8,4.7-2.3c0.2-0.3,0.3-0.5-0.2-0.6c-0.9-0.1-1.7-0.3-2.6-0.5c-0.3-0.1-0.4,0-0.6,0.2c-1.5,1.4-4.1,0.5-4.5-1.5
		c-0.3-1.2-0.1-1.4,1.1-1.1c0,0,0,0,0.1,0c2.3,0.4,4.6,0.9,7,1.3c0.5,0.1,0.8,0,0.9-0.6c0-0.6,0.2-1.1,0.2-1.7
		c0.2-2.6-1.2-4.6-3.7-5.4c-0.6-0.2-1.1-0.3-1.7-0.3c-2.2-0.3-4.1,0.3-5.6,2.1c-1.2,1.5-1.6,3.3-1.6,5.1c0,2.1,1.1,3.6,3,4.4
		C54.4,50.2,55.7,50.4,56.8,50.5z M20.4,25.7c0.3,0.1,0.4-0.1,0.5-0.3c0.1-0.4,0.2-0.8,0.3-1.2c0.2-0.6,0-0.8-0.6-0.9
		c-2.2-0.4-4.3-0.8-6.5-1.2c-0.4-0.1-0.6-0.2-0.4-0.6c0.3-0.7,0.5-1.5,0.6-2.2c0.1-0.4,0.3-0.5,0.7-0.4c1.5,0.3,3,0.6,4.5,0.9
		c1.8,0.3,1.8,0.3,2.2-1.4c0.1-0.5,0-0.6-0.4-0.7c-1.9-0.3-3.7-0.7-5.6-1c-0.5-0.1-0.7-0.2-0.5-0.8c0.2-0.5,0.3-1,0.4-1.4
		c0.1-0.5,0.3-0.6,0.8-0.5c2.1,0.4,4.2,0.8,6.3,1.2c0.4,0.1,0.6,0,0.7-0.4c0.1-0.5,0.2-0.9,0.4-1.4c0.1-0.4,0-0.5-0.4-0.6
		c-3-0.5-6.1-1.1-9.1-1.7c-0.5-0.1-0.7,0-0.9,0.5c-1,3.9-2.1,7.7-3.2,11.5c-0.1,0.5,0,0.7,0.5,0.7c1.9,0.3,3.8,0.7,5.6,1
		C17.8,25.2,19,25.4,20.4,25.7z M21.4,30.2c0.3,0.1,0.4-0.2,0.4-0.4c0.2-0.5,0.3-1.1,0.5-1.6s0-0.6-0.4-0.7c-4-0.7-8-1.5-12.1-2.3
		c-0.4-0.1-0.6,0-0.7,0.4c-0.1,0.6-0.3,1.1-0.5,1.7c-0.1,0.3,0,0.5,0.3,0.5c1.3,0.2,2.6,0.5,3.9,0.7c0.4,0.1,0.5,0.2,0.4,0.6
		c-0.5,1.7-1,3.4-1.5,5.2c-0.6,2-1.1,4.1-1.7,6.1c-0.2,0.6,0,0.7,0.5,0.8c0.7,0.1,1.4,0.2,2,0.4c0.5,0.1,0.8,0,0.9-0.6
		c1-3.7,2.1-7.5,3.1-11.2c0.1-0.5,0.3-0.6,0.8-0.5C18.8,29.8,20.1,30,21.4,30.2z M44.3,43.4C44.3,43.4,44.2,43.4,44.3,43.4
		c-0.1-0.3-0.1-0.5-0.1-0.7c-0.2-2.2-0.4-4.5-0.6-6.7c0-0.3-0.1-0.5-0.5-0.5c-0.8-0.1-1.7-0.3-2.5-0.5c-0.9-0.2-0.9-0.1-0.7,0.7
		c0,0.2,0.1,0.5,0.1,0.7c0.4,3.4,0.9,6.8,1.3,10.2c0.1,0.4,0.2,0.6,0.7,0.7c0.8,0.1,1.6,0.3,2.4,0.5c0.3,0.1,0.5,0,0.7-0.3
		c2.3-3.3,4.6-6.6,6.9-9.9c0.3-0.4,0.1-0.5-0.2-0.5c-0.6-0.1-1.3-0.2-1.9-0.4c-1.1-0.2-1.1-0.2-1.8,0.8
		C46.9,39.7,45.6,41.5,44.3,43.4z M42.4,26.7c0,1.9,1,3,2.6,3.7c0.7,0.3,1.5,0.5,2.3,0.6c1.9,0.2,3.5-0.4,4.7-1.9
		c0.3-0.3,0.3-0.5-0.2-0.6c-0.6-0.1-1.2-0.2-1.8-0.3c-0.4-0.1-0.6,0-0.9,0.2c-0.8,0.6-1.7,0.6-2.5,0.2c-0.7-0.3-1.1-0.9-1.2-1.7
		c-0.1-0.9,0-0.9,0.9-0.7c2,0.4,4,0.7,6,1.1c0.4,0.1,0.7,0,0.8-0.5c0.2-1,0.3-2,0-3c-0.4-1.7-1.6-2.6-3.2-3
		c-2.2-0.5-4.2-0.4-5.9,1.4C42.7,23.4,42.5,25,42.4,26.7z M37.2,29c2,0,3.5-0.9,4.2-2.6c0.4-0.9,0.5-2,0.8-2.9
		c0.1-0.3-0.1-0.5-0.4-0.5c-0.6-0.1-1.2-0.2-1.7-0.3c-0.4-0.1-0.5,0-0.6,0.4c-0.2,0.8-0.4,1.6-0.6,2.4c-0.4,1.1-1.1,1.5-2.2,1.2
		c-0.9-0.3-1.2-0.9-0.9-2c0.3-1.2,0.6-2.4,0.9-3.6c0.1-0.4,0.2-0.4,0.6-0.4c1.4,0.3,2.8,0.5,4.1,0.8c1.3,0.2,1.3,0.2,1.6-1
		c0.1-0.5,0-0.6-0.5-0.7c-1.6-0.3-3.1-0.6-4.7-0.8c-0.5-0.1-0.5-0.3-0.4-0.6c0.2-0.5,0.3-1.1,0.4-1.6c0.1-0.4,0-0.5-0.4-0.6
		c-0.6-0.1-1.3-0.2-1.9-0.3C35.1,15.8,35,16,35,16.3c-0.7,2.8-1.5,5.5-2.2,8.3c-0.5,2,0.3,3.5,2.3,4.2C35.9,28.9,36.6,29,37.2,29z
		 M26.4,17.7c0-0.1,0-0.2,0-0.2c0.3-0.6,0-0.8-0.6-0.8c-0.4,0-0.8-0.1-1.2-0.2c-0.7-0.2-0.8,0.2-1,0.7c-0.2,1-0.5,1.9-0.7,2.9
		c-0.5,1.8-1,3.6-1.4,5.4c-0.1,0.4,0,0.6,0.4,0.6c0.6,0.1,1.1,0.2,1.7,0.3c0.5,0.1,0.6-0.1,0.7-0.5c0.4-1.6,0.9-3.3,1.3-4.9
		c0.1-0.4,0.3-0.8,0.5-1.2c0.6-0.8,1.9-1,2.9-0.4c0.7,0.4,0.8,0.8,0.5,2c-0.4,1.7-0.9,3.5-1.4,5.2C28,27,28,27.2,28.5,27.3
		c0.6,0.1,1.2,0.2,1.8,0.3c0.4,0.1,0.5,0,0.6-0.4c0.6-2.2,1.2-4.3,1.7-6.5c0.3-1.4-0.2-2.6-1.5-3.2c-1.5-0.7-3-0.8-4.4,0.1
		C26.6,17.6,26.5,17.7,26.4,17.7z M69.3,36.6c0.1-0.3-0.1-0.4-0.4-0.4c-0.7-0.1-1.5-0.2-2.2-0.4s-0.8,0.1-0.9,0.6
		c-0.3,1.5-0.7,3.1-1,4.6c-0.8,3.3-1.5,6.5-2.3,9.8c-0.1,0.5-0.1,0.7,0.5,0.8c0.7,0.1,1.5,0.2,2.2,0.4c0.5,0.1,0.7,0,0.8-0.5
		c0.8-3.7,1.7-7.4,2.6-11.1C68.8,39.1,69.1,37.9,69.3,36.6z M24.3,33.4c0-0.3,0-0.4,0.1-0.5c0.3-0.6,0-0.8-0.6-0.9
		c-0.6-0.1-1.2-0.2-1.8-0.3c-0.3-0.1-0.5,0-0.6,0.4c-0.9,3.5-1.9,6.9-2.8,10.4c-0.1,0.3,0,0.5,0.3,0.5c0.7,0.1,1.4,0.2,2,0.4
		s0.8,0,0.9-0.6c0.4-1.7,0.9-3.5,1.4-5.2c0.4-1.5,1.3-2.2,2.7-2.2c0.5,0,0.9,0.1,1.4,0.2c0.3,0.1,0.5,0.1,0.6-0.3
		c0.2-0.7,0.4-1.4,0.6-2.1c0.1-0.4,0-0.6-0.4-0.6C26.8,32.2,25.5,32.4,24.3,33.4z M57.5,23.4c0.1-1,0.1-1-0.8-1.2
		c-0.4-0.1-0.8-0.1-1.2-0.2s-0.6,0-0.7,0.5c-0.2,0.9-0.5,1.8-0.7,2.7c-0.4,1.9-0.9,3.8-1.4,5.8c-0.1,0.5-0.1,0.7,0.5,0.8
		c0.6,0.1,1.2,0.2,1.7,0.4c0.4,0.1,0.5,0,0.6-0.4c0.4-1.6,0.8-3.1,1.2-4.7c0.4-1.4,1.1-1.9,2.4-2c0.5,0,1.2,0.5,1.6,0
		c0.3-0.4,0.3-1.1,0.5-1.6c0-0.1,0-0.2,0.1-0.3c0.2-0.4,0-0.6-0.4-0.6C59.6,22.5,58.6,22.7,57.5,23.4z M70.5,31.9
		c0.1-0.5-0.1-1-0.4-1.5c-1.1-1.7-3.9-2.2-5.5-0.9c-2,1.5-1.7,4.6,0.6,5.6C67.8,36.2,70.5,34.8,70.5,31.9z M60.4,34.1
		c0.3,0,0.8-0.1,1.2-0.4c0.9-0.5,1.1-1.4,1.3-2.3c0.3-1.2,0.4-1-0.9-1.3c-0.4-0.1-0.6,0.1-0.6,0.4c-0.1,0.5-0.2,0.9-0.4,1.4
		c-0.2,0.6-0.7,0.8-1.3,0.6c-0.6-0.1-0.8-0.6-0.7-1.1c0.1-0.7,0.3-1.4,0.4-2.1c0.1-0.6,0.4-0.7,0.9-0.6c0.8,0.2,1.7,0.3,2.5,0.5
		c0.6,0.1,0.5-0.3,0.6-0.7s0-0.5-0.4-0.5c-0.8-0.1-1.5-0.3-2.3-0.4c-0.9-0.2-0.9-0.2-0.7-1.1c0.1-0.2,0.2-0.5,0-0.6
		c-0.4-0.2-1-0.3-1.4-0.3c-0.4,0.1-0.3,0.5-0.4,0.8c-0.4,1.5-0.6,3-1.1,4.5c-0.3,1,0,1.8,0.9,2.4C58.7,34,59.4,34.1,60.4,34.1z"/>
	
		<linearGradient id="SVGID_1_" gradientUnits="userSpaceOnUse" x1="32.0824" y1="77.2211" x2="44.3718" y2="7.5245" gradientTransform="matrix(0.9973 0 0 -0.9973 0 81.9383)">
		<stop  offset="0" style="stop-color:#FF5B45"/>
		<stop  offset="1" style="stop-color:#EF3522"/>
	</linearGradient>
	<path fill="url(#SVGID_1_)" d="M57.5,18.9c0.9,0.4,1.7,0.4,2.6,0.4c1.4,0,2.7,0.4,3.8,1.3c1.3,1,1.3,2.5,1.1,3.9
		c-0.1,0.8-0.1,0.9,0.7,0.8c1.9-0.2,3.7,0.3,5.3,1.3c1.9,1.1,3.1,2.7,3.3,5c0.1,1.5-0.1,2.9-0.9,4.3c-0.1,0.1-0.2,0.3-0.2,0.4
		c0,2.1-0.7,4.1-1.2,6.1c-0.3,1.2-0.4,2.4-0.7,3.6c-0.3,1.1-0.6,2.3-0.9,3.5C70.2,50.3,70,51.2,70,52c0,0.6,0.1,1.2,0.1,1.9
		c-0.1,1.2-0.6,2.1-1.5,2.8c-0.5,0.4-0.8,0.8-0.7,1.5C68,59,67.9,60,68,61c0.2,2.2-1.3,4-3.1,4.5c-1,0.2-1.9,0.2-2.9,0
		c-1.5-0.3-2.9-0.5-4.4-0.9c-1.9-0.5-3.4-1.3-4.1-3.3c-0.3-0.9-0.8-1.7-1.1-2.5c-0.1-0.2-0.2-0.4-0.5-0.5c-2.9-0.3-5.8-0.7-8.7-1.1
		c-0.1,0-0.1,0-0.3,0c0.5,1,0.9,2.1,1.4,3.1c1.3,2.8,2.5,5.6,3.8,8.5c0.4,1,0.4,2-0.1,3c-0.6,1.2-1.4,2.1-2.7,2.5
		c-1,0.3-2,0.3-3,0.1c-2.9-0.6-5.9-1.2-8.8-1.8c-1.5-0.3-2.7-1.1-3.5-2.5c-2.9-4.9-5.8-9.8-8.7-14.8c-0.3-0.6-0.8-1.1-1-1.7
		c-0.4-0.9-1-1.2-1.9-1.5c-3.1-0.8-6.1-1.7-9.2-2.6c-1.5-0.4-2.9-1-4.1-2.2c-1-1-2.1-1.8-3.1-2.8c-1.3-1.3-1.3-3.2-0.5-4.7
		c1-1.8,2.7-2.5,5-2.2c0.5,0,0.6-0.1,0.7-0.5c0.1-0.6,0.4-1.1,0.4-1.7c0.3-1,0.6-2,0.9-3c0.1-0.4,0-0.5-0.4-0.6
		c-0.7-0.2-1.5-0.5-2-1c-1.3-1.2-1.2-2.6-0.9-4.1c0.3-1.2,0.9-2.2,1.3-3.4c1.2-4,2.3-8,3.5-12c0.2-0.8,0.7-1.7,1.3-2.3
		c1.3-1.2,2.8-1.3,4.3-1c1.8,0.3,3.4,0.6,5,1c1.9,0.4,4,0.5,5.8,1.3c1.1,0.5,1.9,1.7,1.8,2.9c0,0.5,0.1,0.6,0.6,0.6
		c0.8,0,1.7-0.1,2.5,0.1c0.4,0.1,0.6,0,0.8-0.2c0.9-0.8,2-1.2,3.2-1.2s2.3,0.2,3.4,0.5c1.6,0.4,2.9,1.1,3.3,2.9
		c0.1,0.2,0.2,0.3,0.4,0.3c1,0.2,2,0.5,2.9,0.9c0.3,0.1,0.5,0.1,0.8,0.1c2.2-0.2,4.4-0.1,6.4,1c0.3,0.2,0.7,0.4,1.1,0.4
		C55,18.5,56.3,18.7,57.5,18.9z M43.7,70.2c-0.2-0.5-0.4-0.8-0.5-1.2c-1.6-3.8-3.3-7.5-4.9-11.3c-0.2-0.5-0.3-0.9-0.1-1.4
		c0.3-1.1,0.6-2.3,0.9-3.5c0.1-0.5,0.3-0.6,0.8-0.5c2,0.3,4,0.7,6,0.9c2.9,0.4,5.7,0.7,8.6,0.9c0.6,0,0.9,0.2,1.1,0.8
		c0.5,1.3,1.2,2.5,1.7,3.8c0.2,0.5,0.3,1.3,1.1,1.5c1.5,0.3,2.9,0.6,4.4,0.9c0.5,0.1,0.7-0.1,0.6-0.6c-0.1-1.8-0.1-3.7-0.1-5.5
		c0-1.2-0.2-1,1-1.3c0.4-0.1,0.8-0.1,1.2-0.4c-0.7-0.1-1.3-0.3-1.9-0.4c-9.2-1.8-18.3-3.6-27.4-5.4c-4.7-0.9-9.4-1.8-14-2.8
		c-5.4-1.1-10.8-2.1-16.3-3.2c-0.2,0-0.4-0.2-0.5,0.1c-0.1,0.2,0.2,0.3,0.3,0.4c1.1,0.9,2.2,1.8,3.3,2.8c0.3,0.3,0.6,0.4,1,0.5
		c4.1,1.2,8.2,2.4,12.4,3.5c0.4,0.1,0.6,0.3,0.8,0.6c1,1.6,1.9,3.3,2.9,4.9c2.6,4.4,5.3,8.9,7.9,13.3c0.2,0.4,0.5,0.5,0.9,0.6
		c1.3,0.2,2.5,0.5,3.8,0.8C40.2,69.5,41.9,69.8,43.7,70.2z M33.8,44.6c-0.3,1,0.3,1.1,0.9,1.2c0.5,0.1,1,0.1,1.4,0.3
		c0.5,0.2,0.6,0,0.7-0.4c0.6-2.5,1.3-4.9,1.9-7.4c0.4-1.8-0.3-3.1-1.9-3.9c-1.4-0.7-2.9-1-4.5-0.9c-1.9,0-3.3,0.8-4,2.7
		c-0.1,0.3,0,0.5,0.3,0.5c0.7,0.1,1.5,0.3,2.2,0.4c0.2,0,0.4,0,0.5-0.2c0.9-1.2,2.5-1.4,3.7-0.5c0.4,0.3,0.5,0.6,0.4,1
		c-0.1,0.5-0.4,0.7-0.9,0.8c-0.3,0-0.6,0.1-0.9,0c-1.1,0-2.2-0.1-3.4,0c-2.2,0.1-3.5,1.2-3.8,3.4c-0.2,1.1,0.2,1.9,1,2.6
		c0.8,0.6,1.6,0.8,2.5,0.9C31.3,45.4,32.5,45.3,33.8,44.6z M56.4,50.3c1.9,0,3.5-0.7,4.6-2.3c0.2-0.3,0.3-0.5-0.2-0.6
		c-0.8-0.1-1.7-0.3-2.5-0.5c-0.3-0.1-0.4,0-0.6,0.2c-1.5,1.3-4,0.5-4.4-1.4c-0.3-1.2-0.1-1.4,1-1.1c0,0,0,0,0.1,0
		c2.3,0.4,4.5,0.9,6.8,1.3c0.5,0.1,0.8,0,0.8-0.6c0-0.5,0.2-1.1,0.2-1.6c0.2-2.6-1.2-4.5-3.7-5.3c-0.5-0.2-1.1-0.3-1.7-0.3
		c-2.2-0.3-4,0.3-5.4,2c-1.2,1.5-1.6,3.2-1.5,5c0,2,1,3.5,2.9,4.3C54.1,50,55.3,50.2,56.4,50.3z M20.8,26c0.3,0.1,0.4-0.1,0.5-0.3
		c0.1-0.4,0.2-0.8,0.3-1.2c0.2-0.6,0-0.8-0.5-0.9c-2.1-0.4-4.3-0.8-6.4-1.2c-0.5,0-0.6-0.1-0.5-0.5c0.3-0.7,0.5-1.5,0.6-2.2
		c0.1-0.4,0.3-0.5,0.7-0.4c1.5,0.3,3,0.5,4.4,0.8c1.7,0.3,1.7,0.3,2.2-1.4c0.1-0.5,0-0.6-0.4-0.7c-1.8-0.3-3.7-0.7-5.5-1
		c-0.5-0.1-0.7-0.2-0.5-0.7s0.3-0.9,0.4-1.4c0.1-0.4,0.3-0.6,0.8-0.5c2.1,0.4,4.1,0.7,6.2,1.1c0.4,0.1,0.6,0,0.6-0.4
		c0.1-0.5,0.2-0.9,0.4-1.3c0.1-0.4,0-0.5-0.4-0.5c-3-0.5-6-1.1-8.9-1.6c-0.5-0.1-0.7,0-0.9,0.5c-1,3.8-2.1,7.5-3.2,11.3
		c-0.1,0.4,0,0.6,0.5,0.7c1.8,0.3,3.7,0.7,5.5,1C18.2,25.5,19.4,25.8,20.8,26z M21.8,30.5c0.3,0.1,0.4-0.2,0.4-0.4
		c0.1-0.5,0.3-1.1,0.4-1.6c0.2-0.5,0-0.6-0.4-0.7c-3.9-0.7-7.9-1.5-11.8-2.2c-0.3-0.1-0.6,0-0.7,0.4c-0.1,0.6-0.3,1.1-0.5,1.7
		c-0.1,0.3,0,0.4,0.3,0.5c1.3,0.2,2.5,0.5,3.8,0.7c0.4,0.1,0.5,0.2,0.4,0.6c-0.5,1.7-1,3.4-1.4,5c-0.6,2-1.1,4-1.7,6
		c-0.2,0.6,0,0.7,0.5,0.8c0.7,0.1,1.3,0.2,2,0.4c0.5,0.1,0.7,0,0.9-0.5c1-3.7,2-7.3,3-11c0.1-0.5,0.3-0.6,0.8-0.5
		C19.2,30,20.5,30.2,21.8,30.5z M44.2,43.4C44.2,43.4,44.1,43.4,44.2,43.4c-0.1-0.3-0.1-0.5-0.1-0.7c-0.2-2.2-0.4-4.4-0.6-6.6
		c0-0.3-0.1-0.5-0.5-0.5c-0.8-0.1-1.6-0.3-2.4-0.5c-0.8-0.2-0.8-0.1-0.7,0.7c0,0.2,0.1,0.5,0.1,0.7c0.4,3.3,0.9,6.6,1.3,10
		c0.1,0.4,0.2,0.6,0.7,0.7c0.8,0.1,1.6,0.3,2.4,0.4c0.3,0.1,0.5,0,0.7-0.3c2.2-3.2,4.5-6.4,6.7-9.6c0.3-0.4,0.1-0.5-0.2-0.5
		c-0.6-0.1-1.3-0.2-1.9-0.4c-1.1-0.2-1.1-0.2-1.7,0.8C46.7,39.7,45.4,41.5,44.2,43.4z M42.3,27c0,1.8,1,2.9,2.6,3.6
		c0.7,0.3,1.4,0.5,2.2,0.6c1.8,0.2,3.4-0.4,4.6-1.8c0.3-0.3,0.3-0.5-0.2-0.6c-0.6-0.1-1.2-0.2-1.7-0.3c-0.3-0.1-0.6,0-0.9,0.2
		c-0.8,0.6-1.6,0.5-2.5,0.2c-0.7-0.3-1.1-0.9-1.2-1.7c-0.1-0.9,0-0.9,0.8-0.7c2,0.4,3.9,0.7,5.9,1.1c0.4,0.1,0.6,0,0.7-0.5
		c0.2-1,0.2-2,0-3c-0.4-1.7-1.6-2.5-3.1-2.9c-2.1-0.5-4.1-0.4-5.7,1.4C42.6,23.8,42.4,25.4,42.3,27z M37.2,29.3c2,0,3.4-0.9,4.1-2.6
		c0.4-0.9,0.5-1.9,0.8-2.9c0.1-0.3-0.1-0.5-0.4-0.5c-0.6-0.1-1.1-0.2-1.7-0.3c-0.4-0.1-0.5,0-0.6,0.4c-0.2,0.8-0.4,1.6-0.6,2.3
		c-0.3,1.1-1.1,1.5-2.1,1.2c-0.9-0.2-1.2-0.9-0.9-2c0.3-1.2,0.6-2.3,0.9-3.5c0.1-0.4,0.2-0.4,0.6-0.4c1.3,0.3,2.7,0.5,4,0.7
		s1.2,0.2,1.6-1c0.1-0.5,0-0.6-0.5-0.7c-1.5-0.3-3.1-0.6-4.6-0.8c-0.5-0.1-0.5-0.3-0.4-0.6c0.1-0.5,0.3-1,0.4-1.5
		c0.1-0.4,0-0.5-0.4-0.6c-0.6-0.1-1.3-0.2-1.9-0.3c-0.2,0-0.3,0.1-0.4,0.4c-0.7,2.7-1.5,5.4-2.1,8.1c-0.5,2,0.3,3.4,2.2,4.2
		C35.9,29.2,36.6,29.3,37.2,29.3z M26.6,18.2c0-0.1,0-0.2,0-0.2c0.3-0.6,0-0.8-0.6-0.8c-0.4,0-0.8-0.1-1.2-0.2
		c-0.6-0.2-0.8,0.2-0.9,0.6c-0.2,0.9-0.5,1.9-0.7,2.8c-0.5,1.8-0.9,3.5-1.4,5.3c-0.1,0.4,0,0.6,0.4,0.6c0.5,0.1,1.1,0.2,1.6,0.3
		c0.5,0.1,0.6-0.1,0.7-0.5c0.4-1.6,0.9-3.2,1.3-4.8c0.1-0.4,0.3-0.8,0.5-1.1c0.6-0.8,1.8-0.9,2.9-0.4c0.7,0.4,0.8,0.7,0.5,1.9
		c-0.4,1.7-0.9,3.4-1.3,5.1c-0.1,0.4,0,0.6,0.4,0.7c0.6,0.1,1.2,0.2,1.7,0.3c0.4,0.1,0.5,0,0.6-0.4c0.5-2.1,1.1-4.2,1.7-6.3
		c0.3-1.3-0.2-2.6-1.5-3.1c-1.4-0.6-2.9-0.8-4.3,0.1C26.9,18.2,26.8,18.3,26.6,18.2z M68.7,36.7c0-0.3-0.1-0.4-0.4-0.4
		c-0.7-0.1-1.5-0.2-2.2-0.4c-0.6-0.2-0.8,0.1-0.9,0.6c-0.3,1.5-0.7,3-1,4.5c-0.7,3.2-1.5,6.4-2.2,9.6c-0.1,0.5-0.1,0.7,0.5,0.8
		c0.7,0.1,1.4,0.2,2.1,0.4c0.5,0.1,0.7,0,0.8-0.5c0.8-3.6,1.7-7.2,2.5-10.9C68.1,39.1,68.4,37.9,68.7,36.7z M24.6,33.6
		c0-0.2,0-0.4,0.1-0.5c0.3-0.6,0-0.8-0.6-0.8c-0.6-0.1-1.2-0.2-1.7-0.3c-0.3-0.1-0.5,0-0.6,0.4c-0.9,3.4-1.8,6.8-2.7,10.2
		c-0.1,0.3,0,0.5,0.3,0.5c0.7,0.1,1.3,0.2,2,0.4c0.6,0.2,0.8,0,0.9-0.6c0.4-1.7,0.9-3.4,1.4-5.1c0.4-1.5,1.3-2.2,2.7-2.2
		c0.5,0,0.9,0.1,1.4,0.2c0.3,0.1,0.5,0.1,0.6-0.3c0.1-0.7,0.4-1.4,0.6-2c0.1-0.4,0-0.5-0.4-0.6C27.1,32.4,25.8,32.6,24.6,33.6z
		 M57.1,23.8c0.1-1,0.1-1-0.8-1.1c-0.4-0.1-0.8-0.1-1.2-0.2s-0.6,0-0.7,0.5c-0.2,0.9-0.5,1.8-0.7,2.7c-0.4,1.9-0.9,3.8-1.3,5.6
		c-0.1,0.5-0.1,0.7,0.5,0.8s1.1,0.2,1.7,0.4c0.4,0.1,0.5,0,0.6-0.4c0.4-1.5,0.7-3,1.1-4.6c0.4-1.4,1-1.9,2.4-1.9
		c0.5,0,1.2,0.5,1.5,0c0.3-0.4,0.3-1,0.5-1.6c0-0.1,0-0.2,0.1-0.2c0.2-0.4,0-0.6-0.4-0.6C59.2,22.9,58.1,23.1,57.1,23.8z M69.8,32.1
		c0.1-0.5-0.1-1-0.4-1.5c-1.1-1.6-3.8-2.1-5.4-0.9c-1.9,1.5-1.7,4.5,0.5,5.4C67.2,36.4,69.8,34.9,69.8,32.1z M59.9,34.3
		c0.3,0,0.8-0.1,1.2-0.3c0.9-0.5,1.1-1.4,1.3-2.2c0.3-1.2,0.4-1-0.9-1.3c-0.4-0.1-0.5,0.1-0.6,0.4c-0.1,0.5-0.2,0.9-0.3,1.4
		c-0.2,0.6-0.6,0.8-1.3,0.6c-0.6-0.1-0.7-0.5-0.7-1.1c0.1-0.7,0.3-1.4,0.4-2s0.4-0.7,0.9-0.5c0.8,0.2,1.7,0.3,2.5,0.5
		c0.6,0.1,0.5-0.3,0.6-0.6c0.1-0.4,0-0.5-0.4-0.5c-0.8-0.1-1.5-0.3-2.2-0.4c-0.9-0.2-0.9-0.2-0.7-1.1c0-0.2,0.2-0.5,0-0.6
		c-0.4-0.2-0.9-0.3-1.4-0.3c-0.4,0.1-0.3,0.5-0.4,0.8c-0.4,1.5-0.6,3-1.1,4.4c-0.3,1,0,1.8,0.8,2.4C58.2,34.1,58.9,34.3,59.9,34.3z"
		/>
	<path fill="#D0D0CF" d="M43.7,70.2c-1.8-0.4-3.5-0.7-5.2-1.1c-1.3-0.3-2.5-0.5-3.8-0.8c-0.4-0.1-0.7-0.3-0.9-0.6
		c-2.6-4.4-5.3-8.9-7.9-13.3c-1-1.6-2-3.3-2.9-4.9c-0.2-0.3-0.4-0.5-0.8-0.6c-4.1-1.2-8.2-2.3-12.4-3.5c-0.4-0.1-0.7-0.3-1-0.5
		c-1.1-0.9-2.2-1.8-3.3-2.8c-0.1-0.1-0.4-0.2-0.3-0.4s0.3-0.1,0.5-0.1c5.4,1.1,10.8,2.1,16.3,3.2c4.7,0.9,9.4,1.8,14,2.8
		c9.2,1.8,18.3,3.6,27.4,5.4c0.6,0.1,1.2,0.3,1.9,0.4c-0.4,0.3-0.8,0.3-1.2,0.4c-1.2,0.3-1,0.1-1,1.3c0,1.8,0.1,3.7,0.1,5.5
		c0,0.5-0.1,0.7-0.6,0.6c-1.5-0.3-2.9-0.6-4.4-0.9c-0.8-0.2-0.9-0.9-1.1-1.5c-0.6-1.3-1.2-2.5-1.7-3.8c-0.2-0.6-0.6-0.7-1.1-0.8
		c-2.9-0.2-5.7-0.5-8.6-0.9c-2-0.3-4-0.6-6-0.9c-0.5-0.1-0.7,0-0.8,0.5c-0.3,1.2-0.5,2.3-0.9,3.5c-0.1,0.5-0.1,0.9,0.1,1.4
		c1.6,3.8,3.3,7.5,4.9,11.3C43.3,69.4,43.5,69.7,43.7,70.2z"/>
	<path fill="#D0D0CF" d="M33.8,44.6c-1.3,0.7-2.4,0.8-3.7,0.6c-0.9-0.1-1.8-0.4-2.5-0.9c-0.9-0.6-1.2-1.5-1-2.6
		c0.3-2.2,1.6-3.3,3.8-3.4c1.1,0,2.2,0,3.4,0c0.3,0,0.6,0,0.9,0c0.5-0.1,0.8-0.3,0.9-0.8c0.1-0.5-0.1-0.8-0.4-1
		c-1.2-0.9-2.8-0.7-3.7,0.5c-0.3,0.2-0.4,0.3-0.7,0.2c-0.7-0.1-1.5-0.3-2.2-0.4c-0.3-0.1-0.4-0.2-0.3-0.5c0.7-1.9,2.1-2.6,4-2.7
		c1.6,0,3.1,0.2,4.5,0.9c1.6,0.8,2.3,2.1,1.9,3.9c-0.6,2.5-1.2,4.9-1.9,7.4c-0.1,0.4-0.3,0.6-0.7,0.4c-0.4-0.2-0.9-0.2-1.4-0.3
		C34.1,45.7,33.5,45.7,33.8,44.6z M34.8,40.3c-0.7,0.2-1.3,0.1-1.9,0.1c-0.7,0-1.4,0-2.1,0.2c-0.6,0.2-1,0.9-1,1.5
		c0.1,0.6,0.5,0.9,1.1,1C32.5,43.5,34.6,42.9,34.8,40.3z"/>
	<path fill="#D0D0CF" d="M56.4,50.3c-1.2,0-2.4-0.3-3.6-0.8C51,48.7,50,47.2,50,45.2c0-1.8,0.3-3.6,1.5-5c1.4-1.7,3.3-2.3,5.4-2
		c0.6,0.1,1.1,0.2,1.7,0.3c2.4,0.7,3.8,2.7,3.7,5.3c0,0.5-0.2,1.1-0.2,1.6c0,0.6-0.3,0.7-0.8,0.6c-2.3-0.5-4.5-0.9-6.8-1.3
		c0,0,0,0-0.1,0c-1.2-0.2-1.3-0.1-1,1.1c0.4,1.9,3,2.8,4.4,1.4c0.2-0.2,0.4-0.3,0.6-0.2c0.8,0.2,1.7,0.3,2.5,0.5
		c0.5,0.1,0.4,0.3,0.2,0.6C59.9,49.5,58.3,50.2,56.4,50.3z M59,42.9c0-0.8-0.2-1.3-0.7-1.8c-1.3-1.2-3.7-0.7-4.3,1
		c-0.1,0.3,0,0.4,0.3,0.4c1.4,0.3,2.7,0.5,4,0.8C58.9,43.5,59,43.3,59,42.9z"/>
	<path fill="#E6E6E5" d="M20.8,26c-1.3-0.3-2.7-0.5-4-0.8c-1.8-0.3-3.7-0.7-5.5-1c-0.5-0.1-0.6-0.3-0.5-0.7C12,19.7,13,16,14.1,12.2
		c0.1-0.5,0.4-0.6,0.9-0.5c3,0.6,6,1.1,8.9,1.6c0.4,0.1,0.5,0.2,0.4,0.5c-0.1,0.4-0.3,0.9-0.4,1.3c-0.1,0.4-0.3,0.4-0.6,0.4
		c-2.1-0.4-4.1-0.7-6.2-1.1c-0.5-0.1-0.7,0-0.8,0.5c-0.1,0.5-0.2,1-0.4,1.4c-0.2,0.5,0,0.7,0.5,0.7c1.8,0.3,3.7,0.7,5.5,1
		c0.5,0.1,0.5,0.2,0.4,0.7c-0.5,1.7-0.4,1.7-2.2,1.4c-1.5-0.3-3-0.6-4.4-0.8c-0.4-0.1-0.6,0-0.7,0.4c-0.2,0.7-0.4,1.5-0.6,2.2
		c-0.2,0.4,0,0.5,0.4,0.6c2.1,0.4,4.2,0.8,6.4,1.2c0.6,0.1,0.8,0.3,0.5,0.9c-0.1,0.4-0.2,0.8-0.3,1.2C21.2,25.9,21,26.1,20.8,26z"/>
	<path fill="#E6E6E5" d="M21.8,30.5c-1.3-0.2-2.6-0.5-3.9-0.7c-0.5-0.1-0.7,0-0.8,0.5c-1,3.7-2,7.3-3,11c-0.1,0.5-0.4,0.7-0.9,0.5
		c-0.7-0.2-1.3-0.3-2-0.4c-0.5-0.1-0.7-0.2-0.5-0.8c0.6-2,1.1-4,1.7-6c0.5-1.7,0.9-3.4,1.4-5c0.1-0.4,0-0.5-0.4-0.6
		c-1.3-0.2-2.5-0.5-3.8-0.7c-0.3-0.1-0.4-0.2-0.3-0.5c0.2-0.5,0.3-1.1,0.5-1.7c0.1-0.4,0.3-0.4,0.7-0.4c3.9,0.7,7.9,1.5,11.8,2.2
		c0.4,0.1,0.6,0.2,0.4,0.7s-0.3,1.1-0.4,1.6C22.2,30.3,22.1,30.5,21.8,30.5z"/>
	<path fill="#D0D0CF" d="M44.2,43.4c1.2-1.9,2.4-3.8,3.7-5.7c0.6-1,0.6-1,1.7-0.8c0.6,0.1,1.2,0.2,1.9,0.4c0.4,0.1,0.5,0.2,0.2,0.5
		c-2.3,3.2-4.5,6.4-6.7,9.6c-0.2,0.3-0.4,0.3-0.7,0.3c-0.8-0.2-1.6-0.3-2.4-0.4c-0.4-0.1-0.6-0.3-0.7-0.7c-0.4-3.3-0.8-6.6-1.3-10
		c0-0.2,0-0.5-0.1-0.7c-0.2-0.8-0.2-0.8,0.7-0.7c0.8,0.1,1.6,0.3,2.4,0.5c0.3,0.1,0.5,0.2,0.5,0.5c0.2,2.2,0.4,4.4,0.6,6.6
		c0,0.2,0,0.4,0,0.6C44.1,43.4,44.2,43.4,44.2,43.4z"/>
	<path fill="#E6E6E5" d="M42.3,27c0.1-1.6,0.3-3.2,1.5-4.4c1.6-1.8,3.6-1.9,5.7-1.4c1.6,0.4,2.7,1.3,3.1,2.9c0.2,1,0.2,2,0,3
		c-0.1,0.5-0.3,0.6-0.7,0.5c-2-0.4-3.9-0.7-5.9-1.1c-0.9-0.2-0.9-0.2-0.8,0.7c0.1,0.8,0.4,1.4,1.2,1.7c0.8,0.3,1.7,0.4,2.5-0.2
		c0.3-0.3,0.6-0.3,0.9-0.2c0.6,0.1,1.2,0.3,1.7,0.3c0.5,0.1,0.5,0.3,0.2,0.6c-1.2,1.4-2.7,2-4.6,1.8c-0.8-0.1-1.5-0.3-2.2-0.6
		C43.3,29.9,42.3,28.8,42.3,27z M47.8,23c-0.8,0.1-1.5,0.5-1.9,1.3c-0.2,0.3-0.1,0.4,0.2,0.5c1.2,0.2,2.3,0.4,3.5,0.6
		c0.3,0.1,0.4-0.1,0.4-0.4C50.1,23.9,49.1,23,47.8,23z"/>
	<path fill="#E6E6E5" d="M37.2,29.3c-0.6,0-1.3-0.1-2-0.4c-1.9-0.8-2.7-2.2-2.2-4.2c0.7-2.7,1.4-5.4,2.1-8.1
		c0.1-0.3,0.2-0.4,0.5-0.4c0.6,0.1,1.2,0.2,1.9,0.3c0.3,0.1,0.5,0.2,0.4,0.6c-0.2,0.5-0.3,1-0.4,1.5c-0.1,0.4-0.1,0.5,0.4,0.6
		c1.5,0.2,3.1,0.6,4.6,0.8c0.5,0.1,0.6,0.2,0.5,0.7c-0.3,1.2-0.3,1.2-1.6,1s-2.7-0.5-4-0.7c-0.3-0.1-0.5,0-0.6,0.4
		c-0.3,1.2-0.6,2.3-0.9,3.5c-0.3,1.1,0,1.7,0.9,2c1,0.3,1.8-0.1,2.1-1.2c0.2-0.8,0.4-1.5,0.6-2.3c0.1-0.4,0.2-0.5,0.6-0.4
		c0.6,0.1,1.1,0.2,1.7,0.3c0.3,0,0.5,0.2,0.4,0.5c-0.3,1-0.4,1.9-0.8,2.9C40.6,28.4,39.2,29.3,37.2,29.3z"/>
	<path fill="#E6E6E5" d="M26.6,18.2c0.2,0.1,0.3,0,0.4-0.1c1.4-0.9,2.9-0.7,4.3-0.1c1.2,0.6,1.8,1.8,1.5,3.1
		c-0.5,2.1-1.1,4.2-1.7,6.3c-0.1,0.4-0.3,0.5-0.6,0.4c-0.6-0.1-1.2-0.2-1.7-0.3c-0.5-0.1-0.5-0.2-0.4-0.7c0.5-1.7,0.9-3.4,1.3-5.1
		c0.3-1.2,0.2-1.6-0.5-1.9c-1-0.5-2.2-0.3-2.9,0.4c-0.3,0.3-0.4,0.7-0.5,1.1c-0.4,1.6-0.9,3.2-1.3,4.8c-0.1,0.4-0.2,0.6-0.7,0.5
		s-1.1-0.2-1.6-0.3c-0.4-0.1-0.5-0.2-0.4-0.6c0.5-1.8,1-3.5,1.4-5.3c0.2-0.9,0.5-1.9,0.7-2.8c0.1-0.5,0.3-0.9,0.9-0.6
		c0.4,0.1,0.8,0.2,1.2,0.2c0.6,0,0.9,0.2,0.6,0.8C26.6,18,26.6,18.1,26.6,18.2z M26.5,18.4L26.5,18.4L26.5,18.4L26.5,18.4z"/>
	<path fill="#D0D0CF" d="M68.7,36.7c-0.3,1.2-0.5,2.4-0.8,3.7c-0.8,3.6-1.7,7.2-2.5,10.9c-0.1,0.5-0.3,0.7-0.8,0.5
		c-0.7-0.2-1.4-0.3-2.1-0.4C62,51.2,61.9,51,62,50.5c0.8-3.2,1.5-6.4,2.2-9.6c0.3-1.5,0.7-3,1-4.5c0.1-0.6,0.3-0.8,0.9-0.6
		c0.7,0.2,1.4,0.3,2.2,0.4C68.6,36.3,68.7,36.4,68.7,36.7z"/>
	<path fill="#E6E6E5" d="M24.6,33.6c1.2-0.9,2.4-1.1,3.8-0.8c0.4,0.1,0.5,0.2,0.4,0.6c-0.2,0.7-0.4,1.3-0.6,2
		c-0.1,0.4-0.2,0.4-0.6,0.3c-0.5-0.1-0.9-0.2-1.4-0.2c-1.4,0-2.2,0.7-2.7,2.2c-0.5,1.7-0.9,3.4-1.4,5.1c-0.1,0.5-0.3,0.7-0.9,0.6
		c-0.6-0.2-1.3-0.3-2-0.4c-0.3-0.1-0.4-0.2-0.3-0.5c0.9-3.4,1.8-6.8,2.7-10.2c0.1-0.3,0.3-0.4,0.6-0.4c0.6,0.1,1.2,0.3,1.7,0.3
		c0.6,0.1,0.8,0.3,0.6,0.8C24.7,33.2,24.7,33.3,24.6,33.6z"/>
	<path fill="#E6E6E5" d="M57.1,23.8c1-0.7,2.1-0.9,3.2-0.7c0.4,0.1,0.6,0.2,0.4,0.6c0,0.1,0,0.2-0.1,0.2c-0.1,0.5-0.1,1.2-0.5,1.6
		c-0.4,0.5-1,0-1.5,0c-1.4,0-2,0.5-2.4,1.9c-0.4,1.5-0.8,3-1.1,4.6c-0.1,0.4-0.2,0.5-0.6,0.4c-0.6-0.2-1.1-0.3-1.7-0.4
		s-0.6-0.3-0.5-0.8c0.5-1.9,1-3.7,1.3-5.6c0.2-0.9,0.5-1.8,0.7-2.7c0.1-0.4,0.3-0.6,0.7-0.5s0.8,0.2,1.2,0.2
		C57.2,22.8,57.2,22.8,57.1,23.8z"/>
	<path fill="#D0D0CF" d="M69.8,32.1c-0.1,2.8-2.6,4.2-5.3,3.1c-2.2-1-2.5-3.9-0.5-5.4c1.5-1.2,4.3-0.7,5.4,0.9
		C69.7,31.1,69.9,31.6,69.8,32.1z M68,32.1c0-0.9-0.6-1.5-1.6-1.5c-1.1,0-1.8,0.8-1.8,2.2c0,0.9,0.6,1.4,1.7,1.4
		C67.3,34.2,68,33.3,68,32.1z"/>
	<path fill="#E6E6E5" d="M59.9,34.3c-0.9,0-1.7-0.2-2.3-0.6c-0.8-0.6-1.2-1.4-0.8-2.4c0.5-1.5,0.7-3,1.1-4.4c0.1-0.3,0-0.7,0.4-0.8
		c0.5-0.1,1,0,1.4,0.3c0.3,0.1,0.1,0.4,0,0.6c-0.2,0.9-0.2,0.9,0.7,1.1c0.7,0.1,1.5,0.3,2.2,0.4c0.4,0.1,0.5,0.2,0.4,0.5
		s0,0.8-0.6,0.6c-0.8-0.2-1.7-0.3-2.5-0.5c-0.5-0.1-0.8,0-0.9,0.5c-0.1,0.7-0.3,1.4-0.4,2c-0.1,0.5,0.1,0.9,0.7,1.1
		c0.6,0.1,1.1,0,1.3-0.6c0.2-0.4,0.3-0.9,0.3-1.4c0.1-0.4,0.2-0.5,0.6-0.4c1.3,0.3,1.2,0,0.9,1.3c-0.2,0.9-0.4,1.7-1.3,2.2
		C60.7,34.2,60.2,34.3,59.9,34.3z"/>
	<linearGradient id="SVGID_2_" gradientUnits="userSpaceOnUse" x1="29.7872" y1="41.8105" x2="34.8" y2="41.8105">
		<stop  offset="0" style="stop-color:#FF5B45"/>
		<stop  offset="1" style="stop-color:#EF3522"/>
	</linearGradient>
	<path fill="url(#SVGID_2_)" d="M34.8,40.3c-0.2,2.8-2.4,3.3-3.9,2.9c-0.5-0.1-1-0.4-1.1-1c-0.1-0.7,0.4-1.3,1-1.5
		c0.7-0.2,1.4-0.2,2.1-0.2C33.5,40.4,34.1,40.5,34.8,40.3z"/>
	<linearGradient id="SVGID_3_" gradientUnits="userSpaceOnUse" x1="53.9625" y1="41.9096" x2="59" y2="41.9096">
		<stop  offset="0" style="stop-color:#FF5B45"/>
		<stop  offset="1" style="stop-color:#EF3522"/>
	</linearGradient>
	<path fill="url(#SVGID_3_)" d="M59,42.9c0,0.4-0.1,0.6-0.7,0.4c-1.3-0.3-2.7-0.5-4-0.8c-0.3-0.1-0.4-0.1-0.3-0.4
		c0.6-1.7,3-2.2,4.3-1C58.7,41.6,59,42.1,59,42.9z"/>
	
		<linearGradient id="SVGID_4_" gradientUnits="userSpaceOnUse" x1="47.2428" y1="19.5433" x2="48.8851" y2="22.3878" gradientTransform="matrix(0.9973 0 0 0.9973 0 3.6532)">
		<stop  offset="0" style="stop-color:#FF5B45"/>
		<stop  offset="1" style="stop-color:#EF3522"/>
	</linearGradient>
	<path fill="url(#SVGID_4_)" d="M47.8,23c1.3,0,2.3,0.9,2.2,2c0,0.3-0.1,0.4-0.4,0.4c-1.2-0.2-2.3-0.4-3.5-0.6
		c-0.3-0.1-0.4-0.2-0.2-0.5C46.3,23.5,47,23.1,47.8,23z"/>
	<path fill="#457597" d="M26.5,18.4L26.5,18.4L26.5,18.4z"/>
	<linearGradient id="SVGID_5_" gradientUnits="userSpaceOnUse" x1="64.6" y1="32.4" x2="68" y2="32.4">
		<stop  offset="0" style="stop-color:#FF5B45"/>
		<stop  offset="1" style="stop-color:#EF3522"/>
	</linearGradient>
	<path fill="url(#SVGID_5_)" d="M68,32.1c0,1.3-0.7,2.1-1.7,2.1c-1.1,0-1.7-0.5-1.7-1.4c0-1.3,0.7-2.2,1.8-2.2
		C67.4,30.6,68,31.1,68,32.1z"/>
</g>
</svg>
