<?xml version="1.0" encoding="utf-8"?>
<!-- Generator: Adobe Illustrator 18.1.0, SVG Export Plug-In . SVG Version: 6.00 Build 0)  -->
<!DOCTYPE svg PUBLIC "-//W3C//DTD SVG 1.1//EN" "http://www.w3.org/Graphics/SVG/1.1/DTD/svg11.dtd">
<svg version="1.1" id="Layer_1" xmlns="http://www.w3.org/2000/svg" xmlns:xlink="http://www.w3.org/1999/xlink" x="0px" y="0px"
	 viewBox="0 0 35.1 26.9" enable-background="new 0 0 35.1 26.9" xml:space="preserve">
<g>
	<g>
		<path fill="#E05645" d="M19.2,0.3c0.2,0,0.4,0.1,0.6,0.3c0.2,0.3,0.1,0.8-0.3,1l-2.3,1.2L15.6,2l3-1.6C18.8,0.3,19,0.3,19.2,0.3z"
			/>
	</g>
	<g>
		<polygon fill="#A87A5B" points="11.2,0 15.6,2 17.3,2.8 20.9,4.5 22.6,5.2 25.4,6.6 25.6,6.8 19.9,10.1 19.9,10.1 19.6,9.7 
			7.1,2.2 		"/>
	</g>
	<g>
		<polygon fill="#91713D" points="25.6,6.8 25.6,6.8 25.6,6.8 		"/>
	</g>
	<g>
		<path fill="#E05645" d="M24.3,2.9c0.2,0,0.4,0.1,0.6,0.3c0.2,0.3,0.1,0.8-0.2,1l-2.1,1.1l-1.7-0.8l0,0L23.8,3
			C23.9,2.9,24.1,2.8,24.3,2.9z"/>
	</g>
	<g enable-background="new    ">
		<g>
			<polygon fill="#91713D" points="19.9,10 19.9,10.1 19.9,10.1 			"/>
		</g>
		<g>
			<polygon fill="#653D1C" points="28.8,14.2 28.8,14.2 28.8,14.2 			"/>
		</g>
		<g>
			<path fill="#DD3521" d="M31.9,12.8c0.2,0,0.4,0.1,0.6,0.3c0.2,0.3,0.1,0.7-0.3,0.9L29,15.7l-0.2-1.6l0,0l2.4-1.3
				C31.5,12.8,31.7,12.8,31.9,12.8z"/>
		</g>
		<g>
			<polygon fill="#E05645" points="2.4,15.3 7,17.5 4,19.8 0,16 			"/>
		</g>
		<g>
			<path fill="#E8B365" d="M34.6,4.5c0.1,0.1,0.1,0.2,0.2,0.3L4.5,20.4L4,19.8L7,17.5c0.3-0.3,0.7-0.5,1.2-0.8l11.7-6.6l5.7-3.3
				l5.2-3c0.6-0.3,1.3-0.4,1.9-0.3C33.5,3.6,34.2,4,34.6,4.5z"/>
		</g>
		<g>
			<path fill="#DD3521" d="M32.4,18.6c0.2,0,0.4,0.1,0.6,0.3c0.2,0.3,0.1,0.8-0.3,0.9l-3.1,1.6l-0.2-1.5l2.4-1.2
				C32,18.6,32.2,18.5,32.4,18.6z"/>
		</g>
		<g>
			<polygon fill="#7C4D28" points="29.6,21.4 30,24.7 25.8,26.9 22.6,13.6 22.3,13.3 22.3,13.2 28.3,10.4 28.4,10.5 28.8,14.2 
				29,15.7 29.4,19.9 			"/>
		</g>
		<g>
			<path fill="#E79419" d="M34.8,4.8c0.5,1,0.1,2.3-1,2.9l-5.5,2.6l-6,2.9l-12.2,6c-0.4,0.2-0.8,0.4-1.2,0.5l-3.7,1.4l-0.6-0.9
				L34.8,4.8z"/>
		</g>
		<g>
			<polygon fill="#DD3521" points="8.9,19.8 9.4,24.6 7.7,26.1 5.2,21.2 5.1,21.2 8.9,19.8 			"/>
		</g>
	</g>
</g>
</svg>
