<?xml version="1.0" encoding="utf-8"?>
<!-- Generator: Adobe Illustrator 18.1.0, SVG Export Plug-In . SVG Version: 6.00 Build 0)  -->
<!DOCTYPE svg PUBLIC "-//W3C//DTD SVG 1.1//EN" "http://www.w3.org/Graphics/SVG/1.1/DTD/svg11.dtd">
<svg version="1.1" id="Layer_1" xmlns="http://www.w3.org/2000/svg" xmlns:xlink="http://www.w3.org/1999/xlink" x="0px" y="0px"
	 viewBox="0 0 53.7 12.8" enable-background="new 0 0 53.7 12.8" xml:space="preserve">
<g>
	<path fill="#EEE8D5" d="M24.7,7.2c-0.4,0-0.8,0.2-1,0.4c-0.4-0.8-1.2-1.3-2.1-1.3c-0.5,0-1,0.2-1.4,0.4c-0.7-1.1-1.9-1.9-3.3-1.9
		c-1.3,0-2.4,0.6-3.1,1.5c-0.2,0-0.4-0.1-0.6-0.1c-1.3,0-2.4,1.1-2.4,2.4h15.5C26.2,7.9,25.5,7.2,24.7,7.2z"/>
	<path fill="#FFFFFF" d="M16.6,9.2c0.2,0,0.4,0.1,0.6,0.2c0.2-0.4,0.7-0.7,1.2-0.7c0.3,0,0.5,0.1,0.7,0.2c0.4-0.6,1-1,1.8-1
		c0.7,0,1.3,0.3,1.7,0.8c0.1,0,0.2,0,0.3,0c0.7,0,1.3,0.6,1.3,1.3h-8.4C15.8,9.5,16.2,9.2,16.6,9.2z"/>
	<path fill="#EEE8D5" d="M35.3,6.6c0.4,0,0.8,0.2,1,0.4c0.4-0.8,1.2-1.3,2.1-1.3c0.5,0,1,0.2,1.4,0.4c0.7-1.1,1.9-1.9,3.3-1.9
		c1.3,0,2.4,0.6,3.1,1.5c0.2,0,0.4-0.1,0.6-0.1c1.3,0,2.4,1.1,2.4,2.4H33.8C33.8,7.3,34.5,6.6,35.3,6.6z"/>
	<path fill="#FFFFFF" d="M46.2,8.1c0.2,0,0.4,0.1,0.6,0.2c0.2-0.4,0.7-0.7,1.2-0.7c0.3,0,0.5,0.1,0.7,0.2c0.4-0.6,1-1,1.8-1
		c0.7,0,1.3,0.3,1.7,0.8c0.1,0,0.2,0,0.3,0c0.7,0,1.3,0.6,1.3,1.3h-8.4C45.3,8.5,45.7,8.1,46.2,8.1z"/>
	<path fill="#FFFFFF" d="M7.5,8.9C7.3,8.9,7.1,9,7,9.1C6.8,8.7,6.3,8.4,5.8,8.4c-0.3,0-0.5,0.1-0.7,0.2c-0.4-0.6-1-1-1.8-1
		C2.6,7.7,2,8,1.6,8.5c-0.1,0-0.2,0-0.3,0C0.6,8.4,0,9,0,9.8h8.4C8.4,9.3,8,8.9,7.5,8.9z"/>
	<path fill="#FFFFFF" d="M40,11.3c-0.4,0-0.8,0.1-1,0.4c-0.4-0.8-1.2-1.3-2.1-1.3c-0.5,0-1,0.2-1.4,0.4c-0.7-1.1-1.9-1.9-3.3-1.9
		c-1.3,0-2.4,0.6-3.1,1.5c-0.2,0-0.4-0.1-0.6-0.1c-1.3,0-2.4,1.1-2.4,2.4h15.5C41.5,12,40.8,11.3,40,11.3z"/>
	<g>
		<path fill="#FAC16C" d="M5.9,2c0.1,0.1,0.3,0.1,0.5,0c0.1-0.1,0.1-0.3,0-0.5L6,1C5.8,0.9,5.6,0.9,5.5,1c-0.1,0.1-0.1,0.3,0,0.5
			L5.9,2z"/>
		<path fill="#FAC16C" d="M6.1,3.6c0,1.1,0.9,1.9,1.9,1.9V1.6C6.9,1.6,6.1,2.5,6.1,3.6z"/>
		<path fill="#F99F1B" d="M8,1.6C8,1.6,8,1.6,8,1.6l0,3.9c0,0,0,0,0,0c1.1,0,1.9-0.9,1.9-1.9C10,2.5,9.1,1.6,8,1.6z"/>
		<path fill="#FAC16C" d="M5.7,3.6c0-0.2-0.1-0.3-0.3-0.3H4.8c-0.2,0-0.3,0.1-0.3,0.3c0,0.2,0.1,0.3,0.3,0.3h0.6
			C5.6,3.9,5.7,3.7,5.7,3.6z"/>
		<path fill="#F99F1B" d="M11.3,3.2h-0.6c-0.2,0-0.3,0.1-0.3,0.3c0,0.2,0.1,0.3,0.3,0.3h0.6c0.2,0,0.3-0.1,0.3-0.3
			C11.6,3.4,11.4,3.2,11.3,3.2z"/>
		<path fill="#FAC16C" d="M5.9,5.2L5.5,5.6C5.4,5.8,5.4,6,5.5,6.1c0.1,0.1,0.3,0.1,0.5,0l0.5-0.5c0.1-0.1,0.1-0.3,0-0.5
			C6.3,5,6.1,5,5.9,5.2z"/>
		<path fill="#FAC16C" d="M7.7,0.3V1c0,0.2,0.1,0.3,0.3,0.3V0C7.8,0,7.7,0.1,7.7,0.3z"/>
		<path fill="#F99F1B" d="M8,0C8,0,8,0,8,0l0,1.3c0,0,0,0,0,0c0.2,0,0.3-0.1,0.3-0.3V0.3C8.3,0.1,8.2,0,8,0z"/>
		<path fill="#FAC16C" d="M7.7,6.2v0.6C7.7,7,7.8,7.1,8,7.1V5.8C7.8,5.8,7.7,6,7.7,6.2z"/>
		<path fill="#F99F1B" d="M8,5.8C8,5.8,8,5.8,8,5.8l0,1.3c0,0,0,0,0,0c0.2,0,0.3-0.1,0.3-0.3V6.2C8.3,6,8.2,5.8,8,5.8z"/>
		<path fill="#F99F1B" d="M10.1,2l0.5-0.5c0.1-0.1,0.1-0.3,0-0.5c-0.1-0.1-0.3-0.1-0.5,0L9.6,1.5C9.5,1.6,9.5,1.8,9.6,2
			C9.7,2.1,10,2.1,10.1,2z"/>
		<path fill="#F99F1B" d="M10.1,5.2C10,5,9.7,5,9.6,5.2c-0.1,0.1-0.1,0.3,0,0.5l0.5,0.5c0.1,0.1,0.3,0.1,0.5,0
			c0.1-0.1,0.1-0.3,0-0.5L10.1,5.2z"/>
	</g>
</g>
</svg>
